<svg version="1.2" xmlns="http://www.w3.org/2000/svg" viewBox="0 0 709 92" width="709" height="92">
	<title>damocles_logo</title>
	<style>
		.s0 { fill: #2c2e35 } 
	</style>
	<path id="Path 1" fill-rule="evenodd" class="s0" d="m-0.3 90.7v-90h35.2q44.7 0 44.7 42.5 0 47.5-44.7 47.5zm35.3-14.5q28 0 28-33 0-28.1-28-28h-18.6v61zm68.1 14.5h-17.1l38.2-90h17.9l39 90h-17.9l-10.3-24.6h-29.9l5.8-14.5h18.1l-14.2-33.7zm89.1 0v-90h17.3l30.5 68.2 29.9-68.2h16.7v90h-15.5v-62.7l-24.4 62.7h-14.2l-24.9-62.7v62.7zm110.1-44.9q0-45.8 45.2-45.8 44.5 0 44.5 45.8 0 45.5-44.5 45.5-43.2 0-45.2-45.5zm45.2 31q27.2 0 27.2-31.4 0-30.9-27.2-30.9-27.9 0-27.9 30.9 0 31.4 27.9 31.4zm131.9 10.1q-11.6 4.4-26.4 4.4-48.4 0-48.4-46.9 0-44.4 48.4-44.4 14.8 0 26.4 4.4v15.1q-11.6-5-25.1-5-32.4 0-32.4 29.9 0 32.4 32.4 32.4 13.5 0 25.1-5zm32.5-86.2v75.5h35.7v14.5h-52.4v-90zm113 0v14.3h-45v22.7h42.9v14.9h-43.1v23.6h46.1v14.5h-62.5v-90zm14.8 86.2v-15.1q13.5 5 30.6 5 20.7 0 20.7-13.8 0-10.1-12.8-10.1h-14q-27.7 0-27.7-25.2 0-27.7 39.4-27.7 15.1 0 28.6 4.4v15.1q-13.5-5-28.6-5-22.7 0-22.7 13.2 0 10.1 11 10.1h14q29.4 0 29.4 25.2 0 28.3-37.3 28.3-17.1 0-30.6-4.4z"/>
</svg>