<svg version="1.2" xmlns="http://www.w3.org/2000/svg" viewBox="0 0 1007 223" width="1007" height="223">
	<title>damocles_logo</title>
	<style>
		.s0 { fill: #ffffff } 
		.s1 { fill: #747479 } 
		.s2 { fill: #e31c18 } 
	</style>
	<path id="Path 1" fill-rule="evenodd" class="s0" d="m282.7 129.7v-90h35.2q44.7 0 44.7 42.5 0 47.5-44.7 47.5zm35.3-14.5q28 0 28-33 0-28.1-28-28h-18.6v61zm68.1 14.5h-17.1l38.2-90h17.9l39 90h-17.9l-10.3-24.6h-29.9l5.8-14.5h18.1l-14.2-33.7zm89.1 0v-90h17.3l30.5 68.2 29.9-68.2h16.7v90h-15.5v-62.7l-24.4 62.7h-14.2l-24.9-62.7v62.7zm110.1-44.9q0-45.8 45.2-45.8 44.5 0 44.5 45.8 0 45.5-44.5 45.5-43.2 0-45.2-45.5zm45.2 31q27.2 0 27.2-31.4 0-30.9-27.2-30.9-27.9 0-27.9 30.9 0 31.4 27.9 31.4zm131.9 10.1q-11.6 4.4-26.4 4.4-48.4 0-48.4-46.9 0-44.4 48.4-44.4 14.8 0 26.4 4.4v15.1q-11.6-5-25.1-5-32.4 0-32.4 29.9 0 32.4 32.4 32.4 13.5 0 25.1-5zm32.5-86.2v75.5h35.7v14.5h-52.4v-90zm113 0v14.3h-45v22.7h42.9v14.9h-43.1v23.6h46.1v14.5h-62.5v-90zm14.8 86.2v-15.1q13.5 5 30.6 5 20.7 0 20.7-13.8 0-10.1-12.8-10.1h-14q-27.7 0-27.7-25.2 0-27.7 39.4-27.7 15.1 0 28.6 4.4v15.1q-13.5-5-28.6-5-22.7 0-22.7 13.2 0 10.1 11 10.1h14q29.4 0 29.4 25.2 0 28.3-37.3 28.3-17.1 0-30.6-4.4z"/>
	<path id="Path 2" fill-rule="evenodd" class="s1" d="m282.7 165.6h6.8v29.2h-6.8zm-0.3-10.9h7.3v6.4h-7.3zm18.5 10.9h6.8v4.5q0.7-1 1.5-1.9 0.9-1 2-1.7 1.1-0.7 2.5-1.1 1.4-0.5 3.1-0.5 4.9 0 7.6 3.1 2.7 3 2.7 8.2v18.6h-6.7v-16.6q0-3.4-1.6-5.3-1.7-1.8-4.6-1.8-2.9 0-4.7 1.9-1.8 1.9-1.8 5.3v16.5h-6.8zm38.6 5.7h-3.7v-5.6h3.7v-2.1q0-4.8 2.4-7.2 2.3-2.3 6.6-2.3 1.8 0 3 0.2 1.3 0.2 2.4 0.5v5.7q-1-0.3-1.9-0.5-0.9-0.2-2-0.2-3.9 0-3.9 4.4v1.6h7.8v5.5h-7.7v23.5h-6.7zm35.9 24.1q-3.3 0-6.1-1.2-2.9-1.2-4.9-3.2-2.1-2-3.3-4.8-1.1-2.8-1.1-5.9v-0.1q-0.1-3.1 1.1-5.9 1.2-2.8 3.3-4.9 2.1-2 4.9-3.2 2.9-1.3 6.3-1.3 3.3 0 6.2 1.2 2.8 1.2 4.9 3.3 2.1 2.1 3.2 4.8 1.2 2.7 1.2 5.9v0.1q0 3.1-1.2 5.9-1.2 2.7-3.2 4.8-2.1 2.1-5 3.3-2.9 1.2-6.3 1.2zm0.2-5.8q2 0 3.6-0.7 1.6-0.8 2.8-2.1 1.1-1.2 1.8-2.9 0.6-1.7 0.6-3.6v-0.1q0-1.9-0.7-3.6-0.7-1.8-1.8-3-1.2-1.3-2.9-2.1-1.6-0.7-3.6-0.7-1.9 0-3.6 0.7-1.6 0.8-2.7 2-1.2 1.3-1.8 3-0.6 1.7-0.6 3.6v0.1q0 1.9 0.7 3.6 0.6 1.7 1.8 3 1.2 1.3 2.8 2.1 1.6 0.7 3.6 0.7zm25.1-24.1h6.7v6.6q1.4-3.3 4-5.3 2.5-2 6.4-1.8v7.1h-0.4q-2.2 0-4 0.7-1.9 0.7-3.2 2.1-1.3 1.5-2.1 3.7-0.7 2.2-0.7 5v11.2h-6.7zm25.6 0h6.8v4.4q0.7-1 1.5-1.9 0.8-0.9 1.9-1.6 1.1-0.7 2.4-1.1 1.4-0.4 3-0.4 3.2 0 5.4 1.4 2.1 1.4 3.3 3.7 1.8-2.3 4.2-3.7 2.4-1.4 5.7-1.4 4.9 0 7.6 2.9 2.7 2.9 2.7 8.2v18.7h-6.8v-16.6q0-3.5-1.5-5.3-1.5-1.8-4.4-1.8-2.7 0-4.4 1.8-1.8 1.9-1.8 5.4v16.5h-6.7v-16.6q0-3.5-1.6-5.3-1.5-1.8-4.3-1.8-2.8 0-4.5 1.9-1.7 2-1.7 5.4v16.4h-6.8zm73.2 29.2v-3.6q-1.5 1.8-3.8 3-2.3 1.2-5.7 1.2-2.1 0-3.9-0.6-1.9-0.6-3.3-1.7-1.4-1.1-2.3-2.8-0.9-1.7-0.9-3.9v-0.1q0-2.5 0.9-4.3 0.9-1.8 2.5-2.9 1.6-1.2 3.8-1.8 2.1-0.6 4.7-0.6 2.6 0 4.5 0.3 1.9 0.4 3.6 0.9v-0.5q0-3.1-1.9-4.7-1.8-1.6-5.3-1.6-2.5 0-4.5 0.5-1.9 0.5-3.9 1.3l-1.8-5.3q2.4-1.1 5-1.8 2.5-0.7 6.1-0.7 6.5 0 9.7 3.3 3.2 3.2 3.2 9.1v17.3zm0.1-12.2q-1.3-0.5-3-0.9-1.7-0.3-3.7-0.3-3.1 0-4.9 1.2-1.8 1.2-1.8 3.3v0.2q0 2.1 1.7 3.2 1.6 1.1 4 1.1 1.6 0 3-0.5 1.5-0.4 2.5-1.2 1.1-0.8 1.6-1.9 0.6-1.2 0.6-2.6zm27.1 12.8q-1.9 0-3.4-0.5-1.6-0.4-2.7-1.4-1.2-1-1.8-2.6-0.6-1.7-0.6-4.1v-15.4h-3.7v-5.8h3.7v-8h6.8v8h7.8v5.8h-7.8v14.3q0 2 0.9 2.8 0.9 0.9 2.7 0.9 2.1 0 4.1-1v5.5q-1.3 0.7-2.7 1.1-1.4 0.4-3.3 0.4zm16-29.8h6.7v29.3h-6.7zm-0.3-10.9h7.2v6.4h-7.2zm32.4 40.7q-3.4 0-6.2-1.2-2.9-1.2-4.9-3.2-2.1-2.1-3.3-4.8-1.1-2.8-1.1-5.9v-0.1q0-3.2 1.2-5.9 1.1-2.8 3.2-4.9 2.1-2 4.9-3.3 2.9-1.2 6.3-1.2 3.4 0 6.2 1.2 2.8 1.2 4.9 3.3 2.1 2.1 3.3 4.8 1.1 2.7 1.1 5.9v0.1q0 3.1-1.2 5.9-1.2 2.7-3.2 4.8-2.1 2.1-5 3.3-2.9 1.2-6.2 1.2zm0.1-5.8q2 0 3.6-0.7 1.7-0.8 2.8-2.1 1.2-1.2 1.8-2.9 0.6-1.7 0.6-3.6v-0.1q0-1.9-0.7-3.7-0.6-1.7-1.8-2.9-1.2-1.3-2.8-2.1-1.7-0.7-3.6-0.7-2 0-3.6 0.7-1.7 0.8-2.8 2-1.2 1.3-1.8 3-0.6 1.7-0.6 3.6v0.1q0 1.9 0.7 3.6 0.6 1.7 1.8 3 1.2 1.3 2.8 2.1 1.7 0.7 3.6 0.7zm25.1-24.1h6.8v4.6q0.7-1 1.5-2 0.9-0.9 2-1.6 1.1-0.7 2.5-1.2 1.3-0.4 3.1-0.4 4.9 0 7.6 3.1 2.7 3 2.7 8.2v18.5h-6.7v-16.5q0-3.4-1.6-5.3-1.7-1.8-4.6-1.8-2.9 0-4.7 1.9-1.8 1.9-1.8 5.3v16.4h-6.8zm66.3 29.8q-1.8 0-3.4-0.5-1.6-0.4-2.7-1.4-1.2-1-1.8-2.6-0.6-1.7-0.6-4.1v-15.4h-3.7v-5.7h3.7v-8.1h6.8v8.1h7.8v5.7h-7.8v14.3q0 2 0.9 2.8 1 0.9 2.7 0.9 2.1 0 4.1-1v5.5q-1.2 0.7-2.7 1.1-1.4 0.4-3.3 0.4zm29 0.1q-3.2 0-5.9-1.1-2.7-1.1-4.8-3.1-2-2-3.1-4.8-1.2-2.8-1.2-6.1v-0.1q0-3.2 1-6 1.1-2.7 3-4.8 1.9-2.1 4.5-3.3 2.6-1.2 5.8-1.2 3.5 0 6.1 1.3 2.6 1.3 4.4 3.4 1.7 2.2 2.6 5.1 0.9 2.8 0.9 6 0 0.4-0.1 0.9 0 0.4 0 0.9h-21.5q0.5 3.6 2.8 5.5 2.3 2 5.6 2 2.5 0 4.3-0.9 1.8-0.9 3.6-2.6l3.9 3.5q-2.1 2.4-5 3.9-2.9 1.5-6.9 1.5zm6.6-17.3q-0.1-1.6-0.7-3-0.5-1.4-1.5-2.4-0.9-1.1-2.2-1.7-1.3-0.6-3-0.6-3.1 0-5.1 2.2-2 2.1-2.5 5.5zm29.7 17.3q-3.2 0-6-1.2-2.8-1.1-4.8-3.2-2-2-3.2-4.8-1.1-2.8-1.1-5.9v-0.1q0-3.1 1.1-5.9 1.2-2.8 3.2-4.8 2-2.1 4.8-3.3 2.8-1.3 6.1-1.3 4.2 0 6.9 1.4 2.7 1.4 4.8 3.7l-4.2 4.5q-1.5-1.6-3.3-2.7-1.7-1-4.3-1-1.8 0-3.3 0.8-1.6 0.7-2.7 1.9-1.1 1.3-1.7 3-0.7 1.7-0.7 3.6v0.1q0 2 0.7 3.7 0.6 1.7 1.8 3 1.1 1.2 2.7 2 1.6 0.7 3.6 0.7 2.4 0 4.2-1 1.8-1 3.4-2.6l4 4q-2.2 2.4-4.9 3.9-2.8 1.5-7.1 1.5zm20.8-41h6.8v15.7q0.7-1 1.6-1.9 0.8-1 2-1.7 1.1-0.7 2.4-1.1 1.4-0.5 3.1-0.5 5 0 7.7 3.1 2.7 3 2.7 8.2v18.6h-6.8v-16.6q0-3.4-1.6-5.3-1.6-1.8-4.6-1.8-2.9 0-4.7 1.9-1.8 1.9-1.8 5.3v16.5h-6.8zm37.1 11.1h6.8v4.6q0.7-1 1.5-2 0.9-0.9 2-1.6 1.2-0.7 2.5-1.1 1.4-0.5 3.1-0.5 4.9 0 7.7 3.1 2.7 3 2.7 8.2v18.6h-6.8v-16.6q0-3.4-1.6-5.3-1.6-1.8-4.6-1.8-2.9 0-4.7 1.9-1.8 1.9-1.8 5.3v16.5h-6.8zm51 29.9q-3.3 0-6.2-1.2-2.8-1.2-4.9-3.3-2.1-2-3.2-4.8-1.2-2.8-1.2-5.9v-0.1q0-3.1 1.2-5.9 1.2-2.8 3.3-4.8 2-2.1 4.9-3.3 2.8-1.2 6.2-1.2 3.4 0 6.2 1.2 2.9 1.1 5 3.2 2 2.1 3.2 4.8 1.2 2.8 1.1 5.9v0.1q0 3.1-1.1 5.9-1.2 2.8-3.3 4.8-2.1 2.1-5 3.3-2.8 1.3-6.2 1.3zm0.1-5.9q2 0 3.7-0.7 1.6-0.8 2.7-2 1.2-1.3 1.8-3 0.6-1.7 0.6-3.6v-0.1q0-1.9-0.7-3.6-0.6-1.7-1.8-3-1.2-1.3-2.8-2-1.6-0.8-3.6-0.8-2 0-3.6 0.8-1.6 0.7-2.8 2-1.1 1.2-1.7 2.9-0.7 1.7-0.7 3.6v0.1q0 2 0.7 3.7 0.7 1.6 1.8 2.9 1.2 1.3 2.9 2.1 1.6 0.7 3.5 0.7zm25.5-35.2h6.8v40.4h-6.8zm32.1 41.1q-3.3 0-6.2-1.2-2.8-1.2-4.9-3.3-2.1-2-3.2-4.8-1.2-2.8-1.2-5.9v-0.1q0-3.1 1.2-5.9 1.2-2.8 3.3-4.8 2-2.1 4.9-3.3 2.8-1.2 6.2-1.2 3.4 0 6.2 1.2 2.9 1.1 5 3.2 2 2.1 3.2 4.8 1.2 2.8 1.2 5.9v0.1q0 3.1-1.2 5.9-1.2 2.8-3.3 4.8-2.1 2.1-4.9 3.3-2.9 1.3-6.3 1.3zm0.1-5.9q2.1 0 3.7-0.7 1.6-0.8 2.8-2 1.1-1.3 1.7-3 0.6-1.7 0.6-3.6v-0.1q0-1.9-0.6-3.6-0.7-1.7-1.9-3-1.2-1.3-2.8-2-1.6-0.8-3.6-0.8-2 0-3.6 0.8-1.6 0.7-2.8 2-1.1 1.2-1.7 2.9-0.6 1.7-0.6 3.6v0.1q0 2 0.6 3.7 0.7 1.6 1.9 2.9 1.1 1.3 2.8 2.1 1.6 0.7 3.5 0.7zm38.1 14.2q-7.3 0-13-3.5l2.5-5q2.3 1.4 4.8 2.3 2.6 0.8 5.6 0.8 4.5 0 6.8-2.3 2.4-2.3 2.4-6.7v-2.3q-1.8 2.4-4.2 3.9-2.5 1.5-6.1 1.5-2.6 0-5-1-2.3-0.9-4.2-2.7-1.8-1.7-2.9-4.3-1.2-2.5-1.2-5.7v-0.1q0-3.2 1.2-5.8 1.1-2.6 2.9-4.3 1.9-1.8 4.3-2.7 2.4-0.9 4.9-0.9 3.7 0 6.1 1.4 2.4 1.5 4.2 3.5v-4.3h6.7v23.2q0 7.3-3.7 11-2 2-5.1 3-3 0.9-7 1zm0.6-17q1.7 0 3.3-0.6 1.6-0.5 2.7-1.6 1.2-1.1 1.9-2.6 0.7-1.4 0.7-3.2v-0.1q0-1.8-0.7-3.3-0.7-1.5-1.9-2.6-1.1-1-2.7-1.6-1.6-0.6-3.3-0.6-1.8 0-3.3 0.6-1.5 0.6-2.6 1.6-1.1 1.1-1.8 2.5-0.6 1.5-0.6 3.3v0.1q0 1.9 0.7 3.3 0.6 1.5 1.7 2.6 1.1 1.1 2.7 1.6 1.5 0.6 3.2 0.6zm32.3 17q-2.1 0-3.8-0.5-1.6-0.4-3.2-1.3l2.3-4.9q1 0.5 1.9 0.8 1 0.3 2 0.3 1.5 0 2.4-0.8 1-0.7 1.8-2.6l-12.2-29.2h7.2l8.3 21.7 7.5-21.7h7l-11.6 30q-0.9 2.3-1.8 3.8-1 1.6-2.1 2.6-1.2 0.9-2.6 1.4-1.4 0.4-3.1 0.4z"/>
	<path id="Path 3" class="s0" d="m215.7 214.5h-209.5v-209.5h209.5z"/>
	<path id="Path 4" class="s2" d="m2.1 221.6h219.7v-219.6h-219.7zm57.9-27.5v-0.1l28.3-49.2q0.4-0.7 0.6-1.1c0.3-0.4 0.4-0.6 0.6-0.8q0.1-0.2 0.1-0.2 0 0 0.1-0.1c0.2-0.3 0.6-0.5 1.2-0.8 5.2-3.1 45.6-26.3 46-26.5q0.1 0 0.1-0.1c0.6-0.3 0.8-0.4 1.3-0.4 0.2-0.1 0.4-0.1 0.8-0.1 0.2 0.1 58.2 0.1 58.2 0.1 0 0-136.6 79.1-137.3 79.3zm-5.8-3.2q0 0 0 0.1v-0.1-158.4q0 0 0 0c0.3 0.2 28 48.1 29.1 50 0.5 0.8 0.7 1.3 0.8 1.8 0 0.5 0 0.9 0 1q0 0.2 0 0.2v52.4q0 0 0 0.3c0 0 0 0.4 0 0.9-0.1 0.5-0.3 1-0.8 1.9-1.1 1.8-28.8 49.7-29.1 49.9zm84.9-82.2c-0.4 0-0.6 0-0.8 0-0.5 0-0.7-0.1-1.3-0.5q0 0-0.1 0c-0.4-0.3-40.8-23.5-46-26.6-0.6-0.3-1-0.5-1.2-0.8q-0.1 0-0.1-0.1 0 0-0.1-0.1c-0.2-0.2-0.3-0.5-0.6-0.9q-0.2-0.4-0.6-1l-28.3-49.3c0.7 0.1 137.3 79.3 137.3 79.3 0 0-58 0-58.2 0z"/>
</svg>